{"asset":{"generator":"glTF-Transform v3.0.4","version":"2.0"},"accessors":[{"type":"SCALAR","componentType":5125,"count":1042320,"normalized":false,"byteOffset":0,"bufferView":0},{"type":"VEC3","componentType":5120,"count":227076,"normalized":true,"byteOffset":0,"bufferView":1},{"type":"SCALAR","componentType":5123,"count":42252,"normalized":false,"byteOffset":0,"bufferView":2},{"type":"VEC3","componentType":5120,"count":9215,"normalized":true,"byteOffset":908304,"bufferView":1},{"type":"SCALAR","componentType":5123,"count":165618,"normalized":false,"byteOffset":84504,"bufferView":2},{"type":"VEC3","componentType":5120,"count":36010,"normalized":true,"byteOffset":945164,"bufferView":1},{"type":"SCALAR","componentType":5123,"count":90513,"normalized":false,"byteOffset":415740,"bufferView":2},{"type":"VEC3","componentType":5120,"count":18861,"normalized":true,"byteOffset":1089204,"bufferView":1},{"type":"SCALAR","componentType":5123,"count":91833,"normalized":false,"byteOffset":596766,"bufferView":2},{"type":"VEC3","componentType":5120,"count":19107,"normalized":true,"byteOffset":1164648,"bufferView":1},{"type":"SCALAR","componentType":5123,"count":38361,"normalized":false,"byteOffset":780432,"bufferView":2},{"type":"VEC3","componentType":5120,"count":8555,"normalized":true,"byteOffset":1241076,"bufferView":1},{"type":"SCALAR","componentType":5123,"count":31083,"normalized":false,"byteOffset":857154,"bufferView":2},{"type":"VEC3","componentType":5120,"count":6712,"normalized":true,"byteOffset":1275296,"bufferView":1},{"type":"SCALAR","componentType":5123,"count":30705,"normalized":false,"byteOffset":919320,"bufferView":2},{"type":"VEC3","componentType":5120,"count":6669,"normalized":true,"byteOffset":1302144,"bufferView":1},{"type":"SCALAR","componentType":5123,"count":21015,"normalized":false,"byteOffset":980730,"bufferView":2},{"type":"VEC3","componentType":5120,"count":4652,"normalized":true,"byteOffset":1328820,"bufferView":1},{"type":"SCALAR","componentType":5123,"count":19065,"normalized":false,"byteOffset":1022760,"bufferView":2},{"type":"VEC3","componentType":5120,"count":4161,"normalized":true,"byteOffset":1347428,"bufferView":1},{"type":"SCALAR","componentType":5123,"count":14268,"normalized":false,"byteOffset":1060890,"bufferView":2},{"type":"VEC3","componentType":5120,"count":3225,"normalized":true,"byteOffset":1364072,"bufferView":1},{"type":"SCALAR","componentType":5123,"count":18288,"normalized":false,"byteOffset":1089426,"bufferView":2},{"type":"VEC3","componentType":5120,"count":4149,"normalized":true,"byteOffset":1376972,"bufferView":1},{"type":"SCALAR","componentType":5123,"count":23430,"normalized":false,"byteOffset":1126002,"bufferView":2},{"type":"VEC3","componentType":5120,"count":5316,"normalized":true,"byteOffset":1393568,"bufferView":1},{"type":"SCALAR","componentType":5123,"count":20157,"normalized":false,"byteOffset":1172862,"bufferView":2},{"type":"VEC3","componentType":5120,"count":4598,"normalized":true,"byteOffset":1414832,"bufferView":1},{"type":"SCALAR","componentType":5123,"count":11985,"normalized":false,"byteOffset":1213176,"bufferView":2},{"type":"VEC3","componentType":5120,"count":2709,"normalized":true,"byteOffset":1433224,"bufferView":1},{"type":"SCALAR","componentType":5123,"count":58998,"normalized":false,"byteOffset":1237146,"bufferView":2},{"type":"VEC3","componentType":5120,"count":12932,"normalized":true,"byteOffset":1444060,"bufferView":1},{"type":"SCALAR","componentType":5123,"count":20373,"normalized":false,"byteOffset":1355142,"bufferView":2},{"type":"VEC3","componentType":5120,"count":4550,"normalized":true,"byteOffset":1495788,"bufferView":1},{"type":"SCALAR","componentType":5123,"count":18324,"normalized":false,"byteOffset":1395888,"bufferView":2},{"type":"VEC3","componentType":5120,"count":4012,"normalized":true,"byteOffset":1513988,"bufferView":1},{"type":"SCALAR","componentType":5123,"count":14658,"normalized":false,"byteOffset":1432536,"bufferView":2},{"type":"VEC3","componentType":5120,"count":3243,"normalized":true,"byteOffset":1530036,"bufferView":1},{"type":"SCALAR","componentType":5123,"count":17844,"normalized":false,"byteOffset":1461852,"bufferView":2},{"type":"VEC3","componentType":5120,"count":4010,"normalized":true,"byteOffset":1543008,"bufferView":1},{"type":"SCALAR","componentType":5123,"count":23427,"normalized":false,"byteOffset":1497540,"bufferView":2},{"type":"VEC3","componentType":5120,"count":5344,"normalized":true,"byteOffset":1559048,"bufferView":1},{"type":"SCALAR","componentType":5123,"count":20184,"normalized":false,"byteOffset":1544394,"bufferView":2},{"type":"VEC3","componentType":5120,"count":4621,"normalized":true,"byteOffset":1580424,"bufferView":1},{"type":"SCALAR","componentType":5123,"count":11991,"normalized":false,"byteOffset":1584762,"bufferView":2},{"type":"VEC3","componentType":5120,"count":2717,"normalized":true,"byteOffset":1598908,"bufferView":1},{"type":"SCALAR","componentType":5123,"count":15165,"normalized":false,"byteOffset":1608744,"bufferView":2},{"type":"VEC3","componentType":5120,"count":3377,"normalized":true,"byteOffset":1609776,"bufferView":1},{"type":"SCALAR","componentType":5123,"count":58998,"normalized":false,"byteOffset":1639074,"bufferView":2},{"type":"VEC3","componentType":5120,"count":13043,"normalized":true,"byteOffset":1623284,"bufferView":1},{"type":"SCALAR","componentType":5123,"count":9210,"normalized":false,"byteOffset":1757070,"bufferView":2},{"type":"VEC3","componentType":5120,"count":2101,"normalized":true,"byteOffset":1675456,"bufferView":1},{"type":"SCALAR","componentType":5123,"count":11445,"normalized":false,"byteOffset":1775490,"bufferView":2},{"type":"VEC3","componentType":5120,"count":2654,"normalized":true,"byteOffset":1683860,"bufferView":1},{"type":"SCALAR","componentType":5123,"count":20229,"normalized":false,"byteOffset":1798380,"bufferView":2},{"type":"VEC3","componentType":5120,"count":4423,"normalized":true,"byteOffset":1694476,"bufferView":1},{"type":"SCALAR","componentType":5123,"count":15180,"normalized":false,"byteOffset":1838838,"bufferView":2},{"type":"VEC3","componentType":5120,"count":3557,"normalized":true,"byteOffset":1712168,"bufferView":1},{"type":"SCALAR","componentType":5123,"count":51726,"normalized":false,"byteOffset":1869198,"bufferView":2},{"type":"VEC3","componentType":5120,"count":11057,"normalized":true,"byteOffset":1726396,"bufferView":1},{"type":"SCALAR","componentType":5123,"count":9222,"normalized":false,"byteOffset":1972650,"bufferView":2},{"type":"VEC3","componentType":5120,"count":2094,"normalized":true,"byteOffset":1770624,"bufferView":1},{"type":"SCALAR","componentType":5123,"count":11493,"normalized":false,"byteOffset":1991094,"bufferView":2},{"type":"VEC3","componentType":5120,"count":2694,"normalized":true,"byteOffset":1779000,"bufferView":1},{"type":"SCALAR","componentType":5123,"count":20040,"normalized":false,"byteOffset":2014080,"bufferView":2},{"type":"VEC3","componentType":5120,"count":4396,"normalized":true,"byteOffset":1789776,"bufferView":1},{"type":"SCALAR","componentType":5123,"count":15372,"normalized":false,"byteOffset":2054160,"bufferView":2},{"type":"VEC3","componentType":5120,"count":3572,"normalized":true,"byteOffset":1807360,"bufferView":1},{"type":"SCALAR","componentType":5123,"count":51738,"normalized":false,"byteOffset":2084904,"bufferView":2},{"type":"VEC3","componentType":5120,"count":11062,"normalized":true,"byteOffset":1821648,"bufferView":1},{"type":"SCALAR","componentType":5123,"count":61128,"normalized":false,"byteOffset":2188380,"bufferView":2},{"type":"VEC3","componentType":5120,"count":13404,"normalized":true,"byteOffset":1865896,"bufferView":1},{"type":"SCALAR","componentType":5123,"count":15159,"normalized":false,"byteOffset":2310636,"bufferView":2},{"type":"VEC3","componentType":5120,"count":3318,"normalized":true,"byteOffset":1919512,"bufferView":1},{"type":"VEC3","componentType":5122,"count":227076,"max":[3056,4264,32767],"min":[-3056,-3412,22674],"normalized":true,"byteOffset":0,"bufferView":3},{"type":"VEC3","componentType":5122,"count":9215,"max":[3304,3264,24875],"min":[-3300,-868,20126],"normalized":true,"byteOffset":1816608,"bufferView":3},{"type":"VEC3","componentType":5122,"count":36010,"max":[5996,5076,7356],"min":[-5996,-3696,-912],"normalized":true,"byteOffset":1890328,"bufferView":3},{"type":"VEC3","componentType":5122,"count":18861,"max":[0,548,20430],"min":[-5412,-5076,10797],"normalized":true,"byteOffset":2178408,"bufferView":3},{"type":"VEC3","componentType":5122,"count":19107,"max":[18498,544,20430],"min":[-144,-5076,-1184],"normalized":true,"byteOffset":2329296,"bufferView":3},{"type":"VEC3","componentType":5122,"count":8555,"max":[5116,632,11277],"min":[-5116,-3896,3672],"normalized":true,"byteOffset":2482152,"bufferView":3},{"type":"VEC3","componentType":5122,"count":6712,"max":[8032,4328,21542],"min":[-108,-80,15493],"normalized":true,"byteOffset":2550592,"bufferView":3},{"type":"VEC3","componentType":5122,"count":6669,"max":[0,4328,21542],"min":[-8032,-80,15489],"normalized":true,"byteOffset":2604288,"bufferView":3},{"type":"VEC3","componentType":5122,"count":4652,"max":[6504,276,3936],"min":[268,-3104,-6008],"normalized":true,"byteOffset":2657640,"bufferView":3},{"type":"VEC3","componentType":5122,"count":4161,"max":[6480,4060,3808],"min":[264,-188,-6012],"normalized":true,"byteOffset":2694856,"bufferView":3},{"type":"VEC3","componentType":5122,"count":3225,"max":[5976,416,-5332],"min":[736,-2872,-12357],"normalized":true,"byteOffset":2728144,"bufferView":3},{"type":"VEC3","componentType":5122,"count":4149,"max":[5940,3224,-5336],"min":[600,48,-13189],"normalized":true,"byteOffset":2753944,"bufferView":3},{"type":"VEC3","componentType":5122,"count":5316,"max":[5080,2636,-11237],"min":[904,-1304,-21434],"normalized":true,"byteOffset":2787136,"bufferView":3},{"type":"VEC3","componentType":5122,"count":4598,"max":[5084,4624,-11657],"min":[968,2208,-21878],"normalized":true,"byteOffset":2829664,"bufferView":3},{"type":"VEC3","componentType":5122,"count":2709,"max":[4888,3052,-20710],"min":[1356,756,-30199],"normalized":true,"byteOffset":2866448,"bufferView":3},{"type":"VEC3","componentType":5122,"count":12932,"max":[4904,4708,-29031],"min":[1664,-3828,-32767],"normalized":true,"byteOffset":2888120,"bufferView":3},{"type":"VEC3","componentType":5122,"count":4550,"max":[-268,276,3696],"min":[-6504,-3104,-6004],"normalized":true,"byteOffset":2991576,"bufferView":3},{"type":"VEC3","componentType":5122,"count":4012,"max":[-264,4060,3656],"min":[-6480,-188,-6008],"normalized":true,"byteOffset":3027976,"bufferView":3},{"type":"VEC3","componentType":5122,"count":3243,"max":[-720,552,-5332],"min":[-5976,-2864,-12525],"normalized":true,"byteOffset":3060072,"bufferView":3},{"type":"VEC3","componentType":5122,"count":4010,"max":[-600,3224,-5340],"min":[-5916,180,-12957],"normalized":true,"byteOffset":3086016,"bufferView":3},{"type":"VEC3","componentType":5122,"count":5344,"max":[-872,2636,-11233],"min":[-5080,-1304,-21434],"normalized":true,"byteOffset":3118096,"bufferView":3},{"type":"VEC3","componentType":5122,"count":4621,"max":[-940,4624,-11657],"min":[-5084,2208,-21878],"normalized":true,"byteOffset":3160848,"bufferView":3},{"type":"VEC3","componentType":5122,"count":2717,"max":[-1360,3052,-20718],"min":[-4888,764,-30199],"normalized":true,"byteOffset":3197816,"bufferView":3},{"type":"VEC3","componentType":5122,"count":3377,"max":[-1280,4540,-20710],"min":[-4920,2588,-30419],"normalized":true,"byteOffset":3219552,"bufferView":3},{"type":"VEC3","componentType":5122,"count":13043,"max":[-1664,4708,-29031],"min":[-4904,-3828,-32767],"normalized":true,"byteOffset":3246568,"bufferView":3},{"type":"VEC3","componentType":5122,"count":2101,"max":[12205,2012,17766],"min":[-3864,352,7304],"normalized":true,"byteOffset":3350912,"bufferView":3},{"type":"VEC3","componentType":5122,"count":2654,"max":[12077,3716,17822],"min":[5228,1756,11761],"normalized":true,"byteOffset":3367720,"bufferView":3},{"type":"VEC3","componentType":5122,"count":4423,"max":[18370,2412,12801],"min":[8197,-888,4432],"normalized":true,"byteOffset":3388952,"bufferView":3},{"type":"VEC3","componentType":5122,"count":3557,"max":[18014,3740,12741],"min":[8225,616,4540],"normalized":true,"byteOffset":3424336,"bufferView":3},{"type":"VEC3","componentType":5122,"count":11057,"max":[19466,1272,4864],"min":[16586,-2436,-1248],"normalized":true,"byteOffset":3452792,"bufferView":3},{"type":"VEC3","componentType":5122,"count":2094,"max":[-5244,2012,17434],"min":[-12205,352,11653],"normalized":true,"byteOffset":3541248,"bufferView":3},{"type":"VEC3","componentType":5122,"count":2694,"max":[-5208,3716,17562],"min":[-12081,1756,11761],"normalized":true,"byteOffset":3558000,"bufferView":3},{"type":"VEC3","componentType":5122,"count":4396,"max":[-8197,2356,12801],"min":[-18370,-888,4432],"normalized":true,"byteOffset":3579552,"bufferView":3},{"type":"VEC3","componentType":5122,"count":3572,"max":[-8229,3740,12741],"min":[-18014,560,4540],"normalized":true,"byteOffset":3614720,"bufferView":3},{"type":"VEC3","componentType":5122,"count":11062,"max":[-16586,1272,4876],"min":[-19466,-2436,-1248],"normalized":true,"byteOffset":3643296,"bufferView":3},{"type":"VEC3","componentType":5122,"count":13404,"max":[4832,4204,15837],"min":[-4832,56,6764],"normalized":true,"byteOffset":3731792,"bufferView":3},{"type":"VEC3","componentType":5122,"count":3318,"max":[4920,4540,-20710],"min":[1280,2588,-30419],"normalized":true,"byteOffset":3839024,"bufferView":3}],"bufferViews":[{"buffer":1,"byteOffset":0,"byteLength":4169280,"target":34963,"extensions":{"EXT_meshopt_compression":{"buffer":0,"byteOffset":0,"byteLength":395181,"mode":"TRIANGLES","byteStride":4,"count":1042320}}},{"buffer":1,"byteOffset":4169280,"byteLength":1932784,"target":34962,"byteStride":4,"extensions":{"EXT_meshopt_compression":{"buffer":0,"byteOffset":395184,"byteLength":643960,"mode":"ATTRIBUTES","filter":"OCTAHEDRAL","byteStride":4,"count":483196}}},{"buffer":1,"byteOffset":6102064,"byteLength":2340954,"target":34963,"extensions":{"EXT_meshopt_compression":{"buffer":0,"byteOffset":1039144,"byteLength":442847,"mode":"TRIANGLES","byteStride":2,"count":1170477}}},{"buffer":1,"byteOffset":8443020,"byteLength":3865568,"target":34962,"byteStride":8,"extensions":{"EXT_meshopt_compression":{"buffer":0,"byteOffset":1481992,"byteLength":1858306,"mode":"ATTRIBUTES","byteStride":8,"count":483196}}}],"buffers":[{"uri":"female.bin","byteLength":3340300},{"byteLength":12308588,"extensions":{"EXT_meshopt_compression":{"fallback":true}}}],"materials":[{"name":"head","doubleSided":true,"pbrMetallicRoughness":{"baseColorFactor":[0.800000011920929,0.800000011920929,0.800000011920929,1],"roughnessFactor":0.5,"metallicFactor":0}}],"meshes":[{"name":"Object_5","primitives":[{"attributes":{"NORMAL":1,"POSITION":74},"mode":4,"material":0,"indices":0},{"attributes":{"NORMAL":3,"POSITION":75},"mode":4,"material":0,"indices":2},{"attributes":{"NORMAL":5,"POSITION":76},"mode":4,"material":0,"indices":4},{"attributes":{"NORMAL":7,"POSITION":77},"mode":4,"material":0,"indices":6},{"attributes":{"NORMAL":9,"POSITION":78},"mode":4,"material":0,"indices":8},{"attributes":{"NORMAL":11,"POSITION":79},"mode":4,"material":0,"indices":10},{"attributes":{"NORMAL":13,"POSITION":80},"mode":4,"material":0,"indices":12},{"attributes":{"NORMAL":15,"POSITION":81},"mode":4,"material":0,"indices":14},{"attributes":{"NORMAL":17,"POSITION":82},"mode":4,"material":0,"indices":16},{"attributes":{"NORMAL":19,"POSITION":83},"mode":4,"material":0,"indices":18},{"attributes":{"NORMAL":21,"POSITION":84},"mode":4,"material":0,"indices":20},{"attributes":{"NORMAL":23,"POSITION":85},"mode":4,"material":0,"indices":22},{"attributes":{"NORMAL":25,"POSITION":86},"mode":4,"material":0,"indices":24},{"attributes":{"NORMAL":27,"POSITION":87},"mode":4,"material":0,"indices":26},{"attributes":{"NORMAL":29,"POSITION":88},"mode":4,"material":0,"indices":28},{"attributes":{"NORMAL":31,"POSITION":89},"mode":4,"material":0,"indices":30},{"attributes":{"NORMAL":33,"POSITION":90},"mode":4,"material":0,"indices":32},{"attributes":{"NORMAL":35,"POSITION":91},"mode":4,"material":0,"indices":34},{"attributes":{"NORMAL":37,"POSITION":92},"mode":4,"material":0,"indices":36},{"attributes":{"NORMAL":39,"POSITION":93},"mode":4,"material":0,"indices":38},{"attributes":{"NORMAL":41,"POSITION":94},"mode":4,"material":0,"indices":40},{"attributes":{"NORMAL":43,"POSITION":95},"mode":4,"material":0,"indices":42},{"attributes":{"NORMAL":45,"POSITION":96},"mode":4,"material":0,"indices":44},{"attributes":{"NORMAL":47,"POSITION":97},"mode":4,"material":0,"indices":46},{"attributes":{"NORMAL":49,"POSITION":98},"mode":4,"material":0,"indices":48},{"attributes":{"NORMAL":51,"POSITION":99},"mode":4,"material":0,"indices":50},{"attributes":{"NORMAL":53,"POSITION":100},"mode":4,"material":0,"indices":52},{"attributes":{"NORMAL":55,"POSITION":101},"mode":4,"material":0,"indices":54},{"attributes":{"NORMAL":57,"POSITION":102},"mode":4,"material":0,"indices":56},{"attributes":{"NORMAL":59,"POSITION":103},"mode":4,"material":0,"indices":58},{"attributes":{"NORMAL":61,"POSITION":104},"mode":4,"material":0,"indices":60},{"attributes":{"NORMAL":63,"POSITION":105},"mode":4,"material":0,"indices":62},{"attributes":{"NORMAL":65,"POSITION":106},"mode":4,"material":0,"indices":64},{"attributes":{"NORMAL":67,"POSITION":107},"mode":4,"material":0,"indices":66},{"attributes":{"NORMAL":69,"POSITION":108},"mode":4,"material":0,"indices":68},{"attributes":{"NORMAL":71,"POSITION":109},"mode":4,"material":0,"indices":70},{"attributes":{"NORMAL":73,"POSITION":110},"mode":4,"material":0,"indices":72}]}],"nodes":[{"name":"Female","translation":[-0.00010105062631282635,-0.6147856434892381,0.10052603248746955],"rotation":[-0.721925554637422,0,0,0.6919707317231348],"scale":[3.874078233389014,3.874078442845815,3.874078442845815],"mesh":0}],"scenes":[{"name":"Scene","nodes":[0]}],"scene":0,"extensionsUsed":["KHR_mesh_quantization","EXT_meshopt_compression"],"extensionsRequired":["KHR_mesh_quantization","EXT_meshopt_compression"]}