{"asset":{"generator":"glTF-Transform v3.0.4","version":"2.0"},"accessors":[{"type":"SCALAR","componentType":5123,"count":108972,"normalized":false,"byteOffset":0,"bufferView":0},{"type":"VEC3","componentType":5120,"count":23835,"normalized":true,"byteOffset":0,"bufferView":1},{"type":"SCALAR","componentType":5123,"count":24843,"normalized":false,"byteOffset":217944,"bufferView":0},{"type":"VEC3","componentType":5120,"count":5569,"normalized":true,"byteOffset":95340,"bufferView":1},{"type":"SCALAR","componentType":5123,"count":68475,"normalized":false,"byteOffset":267630,"bufferView":0},{"type":"VEC3","componentType":5120,"count":14357,"normalized":true,"byteOffset":117616,"bufferView":1},{"type":"SCALAR","componentType":5123,"count":17346,"normalized":false,"byteOffset":404580,"bufferView":0},{"type":"VEC3","componentType":5120,"count":3835,"normalized":true,"byteOffset":175044,"bufferView":1},{"type":"SCALAR","componentType":5123,"count":17535,"normalized":false,"byteOffset":439272,"bufferView":0},{"type":"VEC3","componentType":5120,"count":3691,"normalized":true,"byteOffset":190384,"bufferView":1},{"type":"SCALAR","componentType":5123,"count":57945,"normalized":false,"byteOffset":474342,"bufferView":0},{"type":"VEC3","componentType":5120,"count":12065,"normalized":true,"byteOffset":205148,"bufferView":1},{"type":"SCALAR","componentType":5123,"count":65046,"normalized":false,"byteOffset":590232,"bufferView":0},{"type":"VEC3","componentType":5120,"count":13711,"normalized":true,"byteOffset":253408,"bufferView":1},{"type":"SCALAR","componentType":5123,"count":18942,"normalized":false,"byteOffset":720324,"bufferView":0},{"type":"VEC3","componentType":5120,"count":4203,"normalized":true,"byteOffset":308252,"bufferView":1},{"type":"SCALAR","componentType":5123,"count":18765,"normalized":false,"byteOffset":758208,"bufferView":0},{"type":"VEC3","componentType":5120,"count":4118,"normalized":true,"byteOffset":325064,"bufferView":1},{"type":"SCALAR","componentType":5123,"count":13635,"normalized":false,"byteOffset":795738,"bufferView":0},{"type":"VEC3","componentType":5120,"count":2905,"normalized":true,"byteOffset":341536,"bufferView":1},{"type":"SCALAR","componentType":5123,"count":10500,"normalized":false,"byteOffset":823008,"bufferView":0},{"type":"VEC3","componentType":5120,"count":2236,"normalized":true,"byteOffset":353156,"bufferView":1},{"type":"SCALAR","componentType":5123,"count":20010,"normalized":false,"byteOffset":844008,"bufferView":0},{"type":"VEC3","componentType":5120,"count":4212,"normalized":true,"byteOffset":362100,"bufferView":1},{"type":"SCALAR","componentType":5123,"count":17604,"normalized":false,"byteOffset":884028,"bufferView":0},{"type":"VEC3","componentType":5120,"count":3680,"normalized":true,"byteOffset":378948,"bufferView":1},{"type":"SCALAR","componentType":5123,"count":9912,"normalized":false,"byteOffset":919236,"bufferView":0},{"type":"VEC3","componentType":5120,"count":2120,"normalized":true,"byteOffset":393668,"bufferView":1},{"type":"SCALAR","componentType":5123,"count":9990,"normalized":false,"byteOffset":939060,"bufferView":0},{"type":"VEC3","componentType":5120,"count":2144,"normalized":true,"byteOffset":402148,"bufferView":1},{"type":"SCALAR","componentType":5123,"count":5487,"normalized":false,"byteOffset":959040,"bufferView":0},{"type":"VEC3","componentType":5120,"count":1219,"normalized":true,"byteOffset":410724,"bufferView":1},{"type":"SCALAR","componentType":5123,"count":8478,"normalized":false,"byteOffset":970014,"bufferView":0},{"type":"VEC3","componentType":5120,"count":1850,"normalized":true,"byteOffset":415600,"bufferView":1},{"type":"SCALAR","componentType":5123,"count":45819,"normalized":false,"byteOffset":986970,"bufferView":0},{"type":"VEC3","componentType":5120,"count":10097,"normalized":true,"byteOffset":423000,"bufferView":1},{"type":"SCALAR","componentType":5123,"count":13854,"normalized":false,"byteOffset":1078608,"bufferView":0},{"type":"VEC3","componentType":5120,"count":2860,"normalized":true,"byteOffset":463388,"bufferView":1},{"type":"SCALAR","componentType":5123,"count":10521,"normalized":false,"byteOffset":1106316,"bufferView":0},{"type":"VEC3","componentType":5120,"count":2198,"normalized":true,"byteOffset":474828,"bufferView":1},{"type":"SCALAR","componentType":5123,"count":20082,"normalized":false,"byteOffset":1127358,"bufferView":0},{"type":"VEC3","componentType":5120,"count":4163,"normalized":true,"byteOffset":483620,"bufferView":1},{"type":"SCALAR","componentType":5123,"count":17568,"normalized":false,"byteOffset":1167522,"bufferView":0},{"type":"VEC3","componentType":5120,"count":3672,"normalized":true,"byteOffset":500272,"bufferView":1},{"type":"SCALAR","componentType":5123,"count":9438,"normalized":false,"byteOffset":1202658,"bufferView":0},{"type":"VEC3","componentType":5120,"count":1933,"normalized":true,"byteOffset":514960,"bufferView":1},{"type":"SCALAR","componentType":5123,"count":10179,"normalized":false,"byteOffset":1221534,"bufferView":0},{"type":"VEC3","componentType":5120,"count":2119,"normalized":true,"byteOffset":522692,"bufferView":1},{"type":"SCALAR","componentType":5123,"count":5223,"normalized":false,"byteOffset":1241892,"bufferView":0},{"type":"VEC3","componentType":5120,"count":1102,"normalized":true,"byteOffset":531168,"bufferView":1},{"type":"SCALAR","componentType":5123,"count":8574,"normalized":false,"byteOffset":1252338,"bufferView":0},{"type":"VEC3","componentType":5120,"count":1845,"normalized":true,"byteOffset":535576,"bufferView":1},{"type":"SCALAR","componentType":5123,"count":45795,"normalized":false,"byteOffset":1269486,"bufferView":0},{"type":"VEC3","componentType":5120,"count":10159,"normalized":true,"byteOffset":542956,"bufferView":1},{"type":"SCALAR","componentType":5123,"count":10683,"normalized":false,"byteOffset":1361076,"bufferView":0},{"type":"VEC3","componentType":5120,"count":2494,"normalized":true,"byteOffset":583592,"bufferView":1},{"type":"SCALAR","componentType":5123,"count":9195,"normalized":false,"byteOffset":1382442,"bufferView":0},{"type":"VEC3","componentType":5120,"count":2106,"normalized":true,"byteOffset":593568,"bufferView":1},{"type":"SCALAR","componentType":5123,"count":24552,"normalized":false,"byteOffset":1400832,"bufferView":0},{"type":"VEC3","componentType":5120,"count":6366,"normalized":true,"byteOffset":601992,"bufferView":1},{"type":"SCALAR","componentType":5123,"count":26655,"normalized":false,"byteOffset":1449936,"bufferView":0},{"type":"VEC3","componentType":5120,"count":6856,"normalized":true,"byteOffset":627456,"bufferView":1},{"type":"SCALAR","componentType":5123,"count":66147,"normalized":false,"byteOffset":1503246,"bufferView":0},{"type":"VEC3","componentType":5120,"count":17332,"normalized":true,"byteOffset":654880,"bufferView":1},{"type":"SCALAR","componentType":5123,"count":10905,"normalized":false,"byteOffset":1635540,"bufferView":0},{"type":"VEC3","componentType":5120,"count":2575,"normalized":true,"byteOffset":724208,"bufferView":1},{"type":"SCALAR","componentType":5123,"count":9126,"normalized":false,"byteOffset":1657350,"bufferView":0},{"type":"VEC3","componentType":5120,"count":2039,"normalized":true,"byteOffset":734508,"bufferView":1},{"type":"SCALAR","componentType":5123,"count":23853,"normalized":false,"byteOffset":1675602,"bufferView":0},{"type":"VEC3","componentType":5120,"count":6280,"normalized":true,"byteOffset":742664,"bufferView":1},{"type":"SCALAR","componentType":5123,"count":26772,"normalized":false,"byteOffset":1723308,"bufferView":0},{"type":"VEC3","componentType":5120,"count":6943,"normalized":true,"byteOffset":767784,"bufferView":1},{"type":"SCALAR","componentType":5123,"count":69192,"normalized":false,"byteOffset":1776852,"bufferView":0},{"type":"VEC3","componentType":5120,"count":18349,"normalized":true,"byteOffset":795556,"bufferView":1},{"type":"VEC3","componentType":5122,"count":23835,"max":[3048,4600,32767],"min":[-3044,-2732,24843],"normalized":true,"byteOffset":0,"bufferView":2},{"type":"VEC3","componentType":5122,"count":5569,"max":[5792,4912,27135],"min":[-5780,-260,22022],"normalized":true,"byteOffset":190680,"bufferView":2},{"type":"VEC3","componentType":5122,"count":14357,"max":[6296,6456,17578],"min":[-6164,-2880,-636],"normalized":true,"byteOffset":235232,"bufferView":2},{"type":"VEC3","componentType":5122,"count":3835,"max":[0,2540,22670],"min":[-6384,-2280,15153],"normalized":true,"byteOffset":350088,"bufferView":2},{"type":"VEC3","componentType":5122,"count":3691,"max":[8933,2540,22598],"min":[0,-2284,14977],"normalized":true,"byteOffset":380768,"bufferView":2},{"type":"VEC3","componentType":5122,"count":12065,"max":[7752,3352,21574],"min":[-6960,-2784,6128],"normalized":true,"byteOffset":410296,"bufferView":2},{"type":"VEC3","componentType":5122,"count":13711,"max":[6984,6720,23270],"min":[-6968,620,7760],"normalized":true,"byteOffset":506816,"bufferView":2},{"type":"VEC3","componentType":5122,"count":4203,"max":[10877,5932,22806],"min":[5548,-220,15781],"normalized":true,"byteOffset":616504,"bufferView":2},{"type":"VEC3","componentType":5122,"count":4118,"max":[-5452,5948,22870],"min":[-10873,-232,15773],"normalized":true,"byteOffset":650128,"bufferView":2},{"type":"VEC3","componentType":5122,"count":2905,"max":[6336,1496,1316],"min":[64,-2128,-5456],"normalized":true,"byteOffset":683072,"bufferView":2},{"type":"VEC3","componentType":5122,"count":2236,"max":[-52,4784,996],"min":[-6288,1232,-5000],"normalized":true,"byteOffset":706312,"bufferView":2},{"type":"VEC3","componentType":5122,"count":4212,"max":[6140,1492,-4804],"min":[600,-1748,-14389],"normalized":true,"byteOffset":724200,"bufferView":2},{"type":"VEC3","componentType":5122,"count":3680,"max":[-556,4524,-4732],"min":[-6084,1136,-13869],"normalized":true,"byteOffset":757896,"bufferView":2},{"type":"VEC3","componentType":5122,"count":2120,"max":[6832,3052,22274],"min":[-18122,-4216,-21454],"normalized":true,"byteOffset":787336,"bufferView":2},{"type":"VEC3","componentType":5122,"count":2144,"max":[6840,5404,-12501],"min":[2256,2712,-21438],"normalized":true,"byteOffset":804296,"bufferView":2},{"type":"VEC3","componentType":5122,"count":1219,"max":[18202,2876,4632],"min":[3312,-3788,-28979],"normalized":true,"byteOffset":821448,"bufferView":2},{"type":"VEC3","componentType":5122,"count":1850,"max":[6784,5108,-20978],"min":[3196,2612,-28299],"normalized":true,"byteOffset":831200,"bufferView":2},{"type":"VEC3","componentType":5122,"count":10097,"max":[7760,5636,-27871],"min":[4188,-4352,-32763],"normalized":true,"byteOffset":846000,"bufferView":2},{"type":"VEC3","componentType":5122,"count":2860,"max":[-52,1580,1244],"min":[-6332,-2128,-5600],"normalized":true,"byteOffset":926776,"bufferView":2},{"type":"VEC3","componentType":5122,"count":2198,"max":[6292,4780,996],"min":[56,1196,-5092],"normalized":true,"byteOffset":949656,"bufferView":2},{"type":"VEC3","componentType":5122,"count":4163,"max":[-600,1460,-4792],"min":[-6140,-1752,-14405],"normalized":true,"byteOffset":967240,"bufferView":2},{"type":"VEC3","componentType":5122,"count":3672,"max":[6068,4524,-4716],"min":[568,1132,-14025],"normalized":true,"byteOffset":1000544,"bufferView":2},{"type":"VEC3","componentType":5122,"count":1933,"max":[-2112,3016,-13153],"min":[-6812,176,-21470],"normalized":true,"byteOffset":1029920,"bufferView":2},{"type":"VEC3","componentType":5122,"count":2119,"max":[-2204,5400,-12521],"min":[-6840,2664,-21478],"normalized":true,"byteOffset":1045384,"bufferView":2},{"type":"VEC3","componentType":5122,"count":1102,"max":[-3308,2816,-20978],"min":[-6676,1204,-28975],"normalized":true,"byteOffset":1062336,"bufferView":2},{"type":"VEC3","componentType":5122,"count":1845,"max":[-3196,5108,-20974],"min":[-6784,2584,-28371],"normalized":true,"byteOffset":1071152,"bufferView":2},{"type":"VEC3","componentType":5122,"count":10159,"max":[-4184,5636,-27867],"min":[-7756,-4352,-32767],"normalized":true,"byteOffset":1085912,"bufferView":2},{"type":"VEC3","componentType":5122,"count":2494,"max":[13165,2464,17114],"min":[6748,-216,10877],"normalized":true,"byteOffset":1167184,"bufferView":2},{"type":"VEC3","componentType":5122,"count":2106,"max":[12633,5048,16422],"min":[6648,2116,11117],"normalized":true,"byteOffset":1187136,"bufferView":2},{"type":"VEC3","componentType":5122,"count":6366,"max":[18182,1784,12573],"min":[10221,-4484,4412],"normalized":true,"byteOffset":1203984,"bufferView":2},{"type":"VEC3","componentType":5122,"count":6856,"max":[18142,3500,12657],"min":[10225,-2912,4332],"normalized":true,"byteOffset":1254912,"bufferView":2},{"type":"VEC3","componentType":5122,"count":17332,"max":[19582,-2252,4676],"min":[15869,-6716,-1072],"normalized":true,"byteOffset":1309760,"bufferView":2},{"type":"VEC3","componentType":5122,"count":2575,"max":[-6764,2448,17114],"min":[-13109,-220,10817],"normalized":true,"byteOffset":1448416,"bufferView":2},{"type":"VEC3","componentType":5122,"count":2039,"max":[-6668,5052,16406],"min":[-12621,2176,11117],"normalized":true,"byteOffset":1469016,"bufferView":2},{"type":"VEC3","componentType":5122,"count":6280,"max":[-10217,1796,12641],"min":[-18106,-4284,4640],"normalized":true,"byteOffset":1485328,"bufferView":2},{"type":"VEC3","componentType":5122,"count":6943,"max":[-5020,3500,12717],"min":[-18110,-2868,4560],"normalized":true,"byteOffset":1535568,"bufferView":2},{"type":"VEC3","componentType":5122,"count":18349,"max":[-15869,-2016,4868],"min":[-19582,-6720,-1072],"normalized":true,"byteOffset":1591112,"bufferView":2}],"bufferViews":[{"buffer":1,"byteOffset":0,"byteLength":1915236,"target":34963,"extensions":{"EXT_meshopt_compression":{"buffer":0,"byteOffset":0,"byteLength":358803,"mode":"TRIANGLES","byteStride":2,"count":957618}}},{"buffer":1,"byteOffset":1915236,"byteLength":868952,"target":34962,"byteStride":4,"extensions":{"EXT_meshopt_compression":{"buffer":0,"byteOffset":358804,"byteLength":272360,"mode":"ATTRIBUTES","filter":"OCTAHEDRAL","byteStride":4,"count":217238}}},{"buffer":1,"byteOffset":2784188,"byteLength":1737904,"target":34962,"byteStride":8,"extensions":{"EXT_meshopt_compression":{"buffer":0,"byteOffset":631164,"byteLength":835699,"mode":"ATTRIBUTES","byteStride":8,"count":217238}}}],"buffers":[{"uri":"male.bin","byteLength":1466864},{"byteLength":4522092,"extensions":{"EXT_meshopt_compression":{"fallback":true}}}],"materials":[{"name":"head","doubleSided":true,"pbrMetallicRoughness":{"baseColorFactor":[0.800000011920929,0.800000011920929,0.800000011920929,1],"roughnessFactor":0.4000000059604645,"metallicFactor":0}}],"meshes":[{"name":"Object_13","primitives":[{"attributes":{"NORMAL":1,"POSITION":74},"mode":4,"material":0,"indices":0},{"attributes":{"NORMAL":3,"POSITION":75},"mode":4,"material":0,"indices":2},{"attributes":{"NORMAL":5,"POSITION":76},"mode":4,"material":0,"indices":4},{"attributes":{"NORMAL":7,"POSITION":77},"mode":4,"material":0,"indices":6},{"attributes":{"NORMAL":9,"POSITION":78},"mode":4,"material":0,"indices":8},{"attributes":{"NORMAL":11,"POSITION":79},"mode":4,"material":0,"indices":10},{"attributes":{"NORMAL":13,"POSITION":80},"mode":4,"material":0,"indices":12},{"attributes":{"NORMAL":15,"POSITION":81},"mode":4,"material":0,"indices":14},{"attributes":{"NORMAL":17,"POSITION":82},"mode":4,"material":0,"indices":16},{"attributes":{"NORMAL":19,"POSITION":83},"mode":4,"material":0,"indices":18},{"attributes":{"NORMAL":21,"POSITION":84},"mode":4,"material":0,"indices":20},{"attributes":{"NORMAL":23,"POSITION":85},"mode":4,"material":0,"indices":22},{"attributes":{"NORMAL":25,"POSITION":86},"mode":4,"material":0,"indices":24},{"attributes":{"NORMAL":27,"POSITION":87},"mode":4,"material":0,"indices":26},{"attributes":{"NORMAL":29,"POSITION":88},"mode":4,"material":0,"indices":28},{"attributes":{"NORMAL":31,"POSITION":89},"mode":4,"material":0,"indices":30},{"attributes":{"NORMAL":33,"POSITION":90},"mode":4,"material":0,"indices":32},{"attributes":{"NORMAL":35,"POSITION":91},"mode":4,"material":0,"indices":34},{"attributes":{"NORMAL":37,"POSITION":92},"mode":4,"material":0,"indices":36},{"attributes":{"NORMAL":39,"POSITION":93},"mode":4,"material":0,"indices":38},{"attributes":{"NORMAL":41,"POSITION":94},"mode":4,"material":0,"indices":40},{"attributes":{"NORMAL":43,"POSITION":95},"mode":4,"material":0,"indices":42},{"attributes":{"NORMAL":45,"POSITION":96},"mode":4,"material":0,"indices":44},{"attributes":{"NORMAL":47,"POSITION":97},"mode":4,"material":0,"indices":46},{"attributes":{"NORMAL":49,"POSITION":98},"mode":4,"material":0,"indices":48},{"attributes":{"NORMAL":51,"POSITION":99},"mode":4,"material":0,"indices":50},{"attributes":{"NORMAL":53,"POSITION":100},"mode":4,"material":0,"indices":52},{"attributes":{"NORMAL":55,"POSITION":101},"mode":4,"material":0,"indices":54},{"attributes":{"NORMAL":57,"POSITION":102},"mode":4,"material":0,"indices":56},{"attributes":{"NORMAL":59,"POSITION":103},"mode":4,"material":0,"indices":58},{"attributes":{"NORMAL":61,"POSITION":104},"mode":4,"material":0,"indices":60},{"attributes":{"NORMAL":63,"POSITION":105},"mode":4,"material":0,"indices":62},{"attributes":{"NORMAL":65,"POSITION":106},"mode":4,"material":0,"indices":64},{"attributes":{"NORMAL":67,"POSITION":107},"mode":4,"material":0,"indices":66},{"attributes":{"NORMAL":69,"POSITION":108},"mode":4,"material":0,"indices":68},{"attributes":{"NORMAL":71,"POSITION":109},"mode":4,"material":0,"indices":70},{"attributes":{"NORMAL":73,"POSITION":110},"mode":4,"material":0,"indices":72}]}],"nodes":[{"name":"Male","translation":[0.0010911802364859113,-0.46498822757063396,0.07083122113921596],"rotation":[-0.7033697966528956,0,0,0.7108241197064605],"scale":[4.027347902267792,4.027348307272353,4.027348307272353],"mesh":0}],"scenes":[{"name":"Scene","nodes":[0]}],"scene":0,"extensionsUsed":["KHR_mesh_quantization","EXT_meshopt_compression"],"extensionsRequired":["KHR_mesh_quantization","EXT_meshopt_compression"]}